<?xml version="1.0" standalone="no"?>
<!DOCTYPE svg PUBLIC "-//W3C//DTD SVG 20010904//EN"
 "http://www.w3.org/TR/2001/REC-SVG-20010904/DTD/svg10.dtd">
<svg version="1.0" xmlns="http://www.w3.org/2000/svg"
 width="500.000000pt" height="500.000000pt" viewBox="0 0 500.000000 500.000000"
 preserveAspectRatio="xMidYMid meet">

<g transform="translate(0.000000,500.000000) scale(0.100000,-0.100000)"
fill="#000000" stroke="none">
<path d="M650 4624 c-103 -28 -190 -92 -251 -187 -72 -112 -69 -33 -69 -1585
0 -891 4 -1408 10 -1442 31 -161 154 -294 314 -336 41 -11 180 -14 689 -14
471 0 637 -3 637 -11 0 -7 -77 -137 -171 -290 l-171 -279 -124 0 -124 0 0 -60
0 -60 1110 0 1110 0 0 60 0 60 -124 0 -124 0 -171 279 c-94 153 -171 283 -171
290 0 8 166 11 638 11 508 0 647 3 688 14 160 42 283 175 314 336 6 34 10 549
10 1439 0 1509 1 1471 -56 1569 -38 65 -94 122 -156 159 -111 67 14 63 -1963
62 -1543 0 -1798 -2 -1845 -15z m3725 -136 c64 -34 118 -90 147 -153 l23 -50
3 -1172 2 -1173 -2050 0 -2050 0 2 1173 3 1172 23 50 c38 82 115 149 202 176
14 4 840 7 1835 6 l1810 -2 50 -27z m170 -2873 c0 -197 -2 -213 -23 -255 -37
-75 -78 -117 -150 -152 l-67 -33 -1805 0 -1805 0 -67 33 c-72 35 -114 77 -150
152 -20 41 -23 63 -26 243 -2 109 -2 204 1 211 4 10 387 13 2049 12 l2043 -1
0 -210z m-1499 -840 c95 -154 173 -283 173 -287 1 -5 -323 -8 -719 -8 -396 0
-720 2 -720 5 0 5 232 386 327 538 l23 37 372 -2 371 -3 173 -280z"/>
<path d="M980 4120 l0 -60 555 0 555 0 0 60 0 60 -555 0 -555 0 0 -60z"/>
<path d="M2302 4123 l3 -58 155 0 155 0 3 58 3 57 -161 0 -161 0 3 -57z"/>
<path d="M2800 4120 l0 -60 155 0 155 0 0 60 0 60 -155 0 -155 0 0 -60z"/>
<path d="M3330 4120 l0 -60 345 0 345 0 0 60 0 60 -345 0 -345 0 0 -60z"/>
<path d="M912 3538 l3 -393 1585 0 1585 0 3 393 2 392 -1590 0 -1590 0 2 -392z
m3056 0 l2 -278 -1470 0 -1470 0 0 273 c0 151 3 277 7 280 3 4 664 6 1467 5
l1461 -3 3 -277z"/>
<path d="M915 2977 c-3 -7 -4 -145 -3 -307 l3 -295 620 0 620 0 0 305 0 305
-618 3 c-492 2 -619 0 -622 -11z m1123 -299 l2 -188 -505 0 -505 0 0 183 c0
101 3 187 7 190 3 4 230 6 502 5 l496 -3 3 -187z"/>
<path d="M2220 2680 l0 -310 618 2 617 3 0 305 0 305 -617 3 -618 2 0 -310z
m1120 0 l0 -190 -505 0 -505 0 0 183 c0 101 3 187 7 190 3 4 231 7 505 7 l498
0 0 -190z"/>
<path d="M3500 2680 l0 -310 293 2 292 3 0 305 0 305 -292 3 -293 2 0 -310z
m468 -2 l2 -188 -180 0 -180 0 0 190 0 190 178 -2 177 -3 3 -187z"/>
<path d="M980 2170 l0 -60 235 0 235 0 0 60 0 60 -235 0 -235 0 0 -60z"/>
<path d="M1670 2170 l0 -60 105 0 105 0 0 60 0 60 -105 0 -105 0 0 -60z"/>
<path d="M2397 2223 c-4 -3 -7 -30 -7 -60 l0 -53 815 0 815 0 0 60 0 60 -808
0 c-445 0 -812 -3 -815 -7z"/>
</g>
</svg>
