<?xml version="1.0" standalone="yes"?>
<svg xmlns="http://www.w3.org/2000/svg" width="478" height="324">
<path style="fill:#ffffff; stroke:none;" d="M0 0L0 324L478 324L478 0L0 0z"/>
<path style="fill:#98c5eb; stroke:none;" d="M118 165L146 138L197 87L226 59.0278L245 58L290 58L184 164L160 188L150 196.369L139 189L149 200L150 200L245 105L292 57L247 57C240.738 57 231.924 55.4191 226 57.6034C214.805 61.7312 203.379 78.621 195 87L145 137C136.035 145.965 125.306 154.629 118 165z"/>
<path style="fill:#62b4f6; stroke:none;" d="M117 165C121.238 174.508 132.515 183.14 140.09 190.285C142.531 192.589 146.198 197.527 150 197.079C154.188 196.585 158.227 190.773 161 188L186 163L255 94C266.506 82.4941 280.628 71.304 290 58L245 58L225 59.0278L196 87L145 138L117 165z"/>
<path style="fill:#98c5eb; stroke:none;" d="M166 217L226 159C219.931 158.872 213.077 168.923 209 173C194.955 187.045 177.435 200.766 166 217z"/>
<path style="fill:#62b4f6; stroke:none;" d="M201 250L264 186L290 158L246 158L226 158.742L211 172L181 202L168.207 217L176 227L201 250z"/>
<path style="fill:#98c5eb; stroke:none;" d="M289 161L292 158L289 161M288 161L289 162L288 161M287 162L288 163L287 162M286 163L287 164L286 163M285 164L286 165L285 164M284 165L285 166L284 165M116 166L117 167L116 166M283 166L284 167L283 166M117 167L118 168L117 167M282 167L283 168L282 167M118 168L119 169L118 168M281 168L282 169L281 168M119 169L120 170L119 169M280 169L281 170L280 169M120 170L121 171L120 170M279 170L280 171L279 170M278 171L279 172L278 171M277 172L278 173L277 172M276 173L277 174L276 173M275 174L276 175L275 174M125 175L126 176L125 175M274 175L275 176L274 175M126 176L127 177L126 176M273 176L274 177L273 176M127 177L128 178L127 177M272 177L273 178L272 177M128 178L130 180L130 178L128 178M271 178L272 179L271 178M270 179L271 180L270 179M269 180L270 181L269 180M131 181L132 182L131 181M268 181L269 182L268 181M267 182L268 183L267 182M133 183L134 184L133 183M266 183L267 184L266 183M134 184L135 185L134 184M265 184L266 185L265 184M135 185L136 186L135 185M264 185L265 186L264 185M136 186L137 187L136 186M263 186L264 187L263 186M262 187L263 188L262 187M261 188L262 189L261 188M260 189L261 190L260 189M259 190L260 191L259 190M258 191L259 192L258 191M257 192L258 193L257 192M256 193L257 194L256 193M255 194L256 195L255 194M254 195L255 196L254 195M253 196L254 197L253 196M252 197L253 198L252 197M251 198L252 199L251 198M250 199L251 200L250 199M249 200L250 201L249 200M248 201L249 202L248 201M247 202L248 203L247 202M246 203L247 204L246 203M245 204L246 205L245 204M244 205L245 206L244 205M243 206L244 207L243 206M242 207L243 208L242 207M241 208L242 209L241 208M240 209L241 210L240 209M239 210L240 211L239 210M238 211L239 212L238 211M237 212L238 213L237 212M236 213L237 214L236 213M235 214L236 215L235 214M234 215L235 216L234 215M233 216L243 226L233 216z"/>
<path style="fill:#154289; stroke:none;" d="M233 217L200 250L200 251L204 253L203 250C217.765 249.037 236.354 240.496 234 224L245 230L233 217z"/>
<path style="fill:#0f48a2; stroke:none;" d="M237 221L238 222L237 221M235 222L236 223L235 222M238 222L239 223L238 222M239 223L240 224L239 223M234 224C234.797 240.834 218.237 247.506 203 250L203 254L206 254L205 256L209 257L221 272L224 275L288 274L287 270L271 257L270 256L271 254L255 241L254 240L255 238L246 229L234 224M241 225L242 226L241 225M243 227L244 228L243 227z"/>
<path style="fill:#98c5eb; stroke:none;" d="M246 229L247 230L246 229z"/>
<path style="fill:#154289; stroke:none;" d="M247 231L248 232L247 231M248 233L249 234L248 233M252 236L253 237L252 236M253 238L254 239L253 238z"/>
<path style="fill:#0f48a2; stroke:none;" d="M210 239L211 240L210 239z"/>
<path style="fill:#154289; stroke:none;" d="M254 239L256 241L256 239L254 239z"/>
<path style="fill:#0f48a2; stroke:none;" d="M209 240L210 241L209 240z"/>
<path style="fill:#154289; stroke:none;" d="M256 241L258 243L256 241z"/>
<path style="fill:#0f48a2; stroke:none;" d="M207 242L208 243L207 242M206 243L207 244L206 243z"/>
<path style="fill:#154289; stroke:none;" d="M260 244L261 245L260 244M261 245L261 247L263 247L261 245z"/>
<path style="fill:#0f48a2; stroke:none;" d="M203 246L204 247L203 246M202 247L203 248L202 247z"/>
<path style="fill:#154289; stroke:none;" d="M263 247L264 248L263 247M264 249L266 251L264 249M267 251L268 252L267 251M268 252L269 253L268 252M204.667 254.333L205.333 254.667L204.667 254.333M269 254L270 255L269 254M270 255L272 257L272 255L270 255M206 256L209 258L206 256M211 257L212 258L211 257M272 257L274 259L272 257M209 258L218 267L209 258M276 260L277 261L276 260M277 261L277 263L279 263L277 261M279 263L280 264L279 263M280 265L282 267L280 265z"/>
<path style="fill:#98c5eb; stroke:none;" d="M216 267L217 268L216 267z"/>
<path style="fill:#154289; stroke:none;" d="M218 267L222 271L218 267M283 267L284 268L283 267M284 268L285 269L284 268z"/>
<path style="fill:#98c5eb; stroke:none;" d="M218 269L219 270L218 269z"/>
<path style="fill:#0f48a2; stroke:none;" d="M219 269L220 270L219 269z"/>
<path style="fill:#154289; stroke:none;" d="M285 270L286 271L285 270z"/>
<path style="fill:#98c5eb; stroke:none;" d="M220 271L221 272L220 271z"/>
<path style="fill:#154289; stroke:none;" d="M222 271L225 274L222 271M286 271L288 274L228 274L228 275L291 275L286 271z"/>
<path style="fill:#98c5eb; stroke:none;" d="M223 274L224 275L223 274z"/>
<path style="fill:#154289; stroke:none;" d="M225.667 274.333L226.333 274.667L225.667 274.333z"/>
<path style="fill:#98c5eb; stroke:none;" d="M224.667 275.333L225.333 275.667L224.667 275.333z"/>
<path style="fill:#62b4f6; stroke:none;" d="M226 275L226 276L289 276L269 275L226 275z"/>
<path style="fill:#98c5eb; stroke:none;" d="M289 275L289 276L292 276L289 275z"/>
</svg>
