<?xml version="1.0" standalone="no"?>
<!DOCTYPE svg PUBLIC "-//W3C//DTD SVG 20010904//EN"
 "http://www.w3.org/TR/2001/REC-SVG-20010904/DTD/svg10.dtd">
<svg version="1.0" xmlns="http://www.w3.org/2000/svg"
 width="474.000000pt" height="237.000000pt" viewBox="0 0 474.000000 237.000000"
 preserveAspectRatio="xMidYMid meet">

<g transform="translate(0.000000,237.000000) scale(0.100000,-0.100000)"
fill="#000000" stroke="none">
<path d="M763 1855 c-39 -17 -66 -56 -68 -99 -1 -18 -5 -38 -8 -43 -7 -11
-192 -122 -248 -148 -33 -16 -38 -16 -67 -1 -50 26 -96 21 -131 -15 -38 -38
-46 -68 -31 -113 10 -32 44 -69 70 -78 5 -2 11 -77 13 -167 2 -132 0 -166 -11
-175 -79 -61 -94 -97 -66 -157 28 -64 95 -87 158 -54 15 8 33 15 38 15 11 0
246 -137 271 -158 10 -9 15 -23 12 -33 -8 -24 21 -85 49 -104 11 -8 40 -15 64
-15 37 0 50 6 78 34 29 29 34 41 34 79 0 40 4 47 28 60 15 7 77 42 137 76 105
60 111 63 140 50 17 -7 52 -13 78 -13 43 -1 53 3 78 32 49 54 37 127 -27 171
l-34 24 0 162 0 163 33 21 c39 24 57 58 57 107 0 28 -8 44 -34 70 -39 39 -89
45 -137 17 -34 -20 -28 -23 -211 85 -105 62 -108 64 -108 99 0 52 -34 100 -78
113 -45 12 -40 12 -79 -5z m-43 -198 c0 -12 -31 -68 -207 -372 -132 -227 -155
-265 -164 -265 -5 0 -9 74 -9 165 l0 166 29 17 c34 19 61 69 61 112 0 26 9 34
103 86 56 32 118 68 137 81 39 26 50 28 50 10z m206 4 c5 -5 59 -37 119 -72
131 -74 147 -87 140 -110 -9 -27 20 -85 52 -105 15 -10 30 -19 31 -20 5 -4 2
-327 -3 -332 -5 -5 -44 39 -45 50 0 7 -148 267 -261 460 -38 64 -69 121 -69
127 0 13 22 14 36 2z m-47 -78 c17 -32 58 -103 91 -158 33 -55 103 -176 155
-268 l96 -168 -18 -32 -19 -32 -371 -3 -371 -2 -21 29 c-12 16 -21 35 -21 43
0 7 46 92 101 188 56 96 135 234 176 305 41 72 79 136 85 143 6 6 27 12 48 12
35 0 39 -3 69 -57z m305 -712 c5 -8 -241 -160 -275 -168 -10 -3 -28 2 -41 11
-28 20 -88 21 -114 1 -10 -8 -25 -15 -32 -15 -7 0 -57 25 -110 57 -53 31 -110
63 -127 71 -42 21 -56 33 -49 43 7 12 741 12 748 0z"/>
<path d="M1807 1506 c-97 -27 -127 -84 -127 -247 0 -63 5 -130 10 -149 27 -99
171 -150 277 -99 63 30 96 91 97 178 l1 66 -87 3 c-74 2 -88 0 -88 -13 0 -12
14 -15 70 -15 l70 0 0 -47 c0 -92 -49 -149 -136 -159 -71 -9 -134 19 -160 72
-26 53 -28 263 -3 309 30 54 55 69 123 73 78 5 126 -15 155 -64 11 -19 28 -34
36 -34 37 0 -20 86 -75 115 -40 20 -111 25 -163 11z"/>
<path d="M3286 1513 c-3 -3 -6 -120 -6 -260 0 -218 2 -253 15 -253 12 0 15 20
15 120 0 143 14 190 65 214 72 34 143 12 169 -54 12 -29 16 -73 16 -160 0
-100 3 -120 15 -120 13 0 15 22 15 135 0 146 -6 169 -55 215 -22 21 -36 25
-89 25 -49 0 -67 -5 -90 -23 -39 -30 -46 -18 -46 80 0 71 -8 97 -24 81z"/>
<path d="M3875 1513 c-11 -2 -30 -6 -42 -9 -13 -2 -38 -18 -58 -35 -45 -40
-65 -107 -65 -218 1 -148 22 -198 100 -238 47 -24 112 -30 167 -14 27 8 34 6
59 -20 44 -46 72 -37 34 11 -25 32 -25 42 1 92 26 51 37 199 20 278 -13 60
-48 113 -89 134 -31 15 -97 25 -127 19z m134 -67 c40 -38 55 -107 49 -228 -3
-83 -7 -101 -31 -136 -20 -31 -37 -44 -69 -52 -87 -24 -175 14 -197 83 -18 58
-22 151 -11 222 9 62 15 74 51 109 40 38 41 38 109 34 60 -3 73 -8 99 -32z"/>
<path d="M4237 1503 c-4 -3 -7 -118 -7 -255 l0 -249 150 3 c188 4 204 22 23
26 -86 2 -130 7 -135 15 -4 7 -8 114 -8 240 0 207 -3 240 -23 220z"/>
<path d="M2510 1369 c-32 -13 -70 -49 -70 -66 0 -18 29 -16 37 2 16 44 122 60
166 25 30 -24 47 -87 27 -100 -7 -4 -46 -13 -87 -19 -85 -13 -122 -29 -152
-67 -25 -32 -26 -55 -6 -94 30 -58 125 -76 203 -38 41 19 45 20 54 5 22 -40
28 -10 28 133 0 125 -3 155 -17 177 -31 46 -120 67 -183 42z m163 -222 c-3
-85 -58 -134 -140 -124 -55 6 -83 30 -83 72 0 47 33 71 120 88 104 21 105 20
103 -36z"/>
<path d="M2923 1354 c-42 -24 -43 -25 -43 -5 0 28 -28 27 -35 -1 -3 -13 -4
-126 -3 -253 3 -197 5 -230 18 -230 12 0 16 18 18 88 l3 87 45 -26 c82 -48
178 -21 218 62 26 56 19 198 -13 243 -47 66 -134 80 -208 35z m159 -30 c65
-58 65 -220 0 -277 -30 -27 -92 -33 -134 -13 -52 25 -68 61 -68 153 0 87 11
111 64 144 38 24 106 21 138 -7z"/>
<path d="M2190 1184 c0 -144 3 -185 13 -182 8 3 13 45 17 146 6 163 14 181 91
191 23 3 44 12 47 19 5 17 -66 15 -98 -3 -32 -18 -40 -18 -40 0 0 8 -7 15 -15
15 -13 0 -15 -27 -15 -186z"/>
</g>
</svg>
